<svg width="28" height="28" viewBox="0 0 28 28" fill="none" xmlns="http://www.w3.org/2000/svg">
<path d="M27.1797 13.1797H26.263C25.8561 7.04956 20.9504 2.14392 14.8203 1.73697V0.875C14.8203 0.421692 14.4533 0 14 0C13.5467 0 13.1797 0.421692 13.1797 0.875V1.73697C7.04956 2.14392 2.14392 7.04956 1.73697 13.1797H0.820312C0.367004 13.1797 0 13.5467 0 14C0 14.4533 0.367004 14.8203 0.820312 14.8203H1.73697C2.14392 20.9504 7.04956 25.8561 13.1797 26.263V27.1797C13.1797 27.633 13.5467 28 14 28C14.4533 28 14.8203 27.633 14.8203 27.1797V26.263C20.9504 25.8561 25.8561 20.9504 26.263 14.8203H27.1797C27.633 14.8203 28 14.4533 28 14C28 13.5467 27.633 13.1797 27.1797 13.1797ZM14.8203 24.6224V23.8438C14.8203 23.3904 14.4533 23.0234 14 23.0234C13.5467 23.0234 13.1797 23.3904 13.1797 23.8438V24.6224C7.95447 24.2216 3.77835 20.0455 3.37759 14.8203H4.15625C4.60956 14.8203 4.97656 14.4533 4.97656 14C4.97656 13.5467 4.60956 13.1797 4.15625 13.1797H3.37759C3.77835 7.95447 7.95447 3.77835 13.1797 3.37759V4.15625C13.1797 4.60956 13.5467 4.97656 14 4.97656C14.4533 4.97656 14.8203 4.60956 14.8203 4.15625V3.37759C20.0455 3.77835 24.2216 7.95447 24.6224 13.1797H23.8438C23.3904 13.1797 23.0234 13.5467 23.0234 14C23.0234 14.4533 23.3904 14.8148 23.8438 14.8148H24.6224C24.2216 20.0402 20.0455 24.2216 14.8203 24.6224Z" fill="#EB0000"/>
<path d="M18.1016 20.5625H9.89844C9.44513 20.5625 9.07812 20.1955 9.07812 19.7422V17.2812C9.07812 15.4716 10.5498 14 12.3594 14V13.561C11.3468 12.9746 10.7188 11.886 10.7188 10.7188C10.7188 8.90915 12.1904 7.4375 14 7.4375C15.8096 7.4375 17.2812 8.90915 17.2812 10.7188C17.2812 11.886 16.6523 12.9755 15.6406 13.561V14C17.4502 14 18.9219 15.4716 18.9219 17.2812V19.7422C18.9219 20.1955 18.5549 20.5625 18.1016 20.5625Z" fill="#EB0000"/>
</svg>
