<svg width="16" height="16" viewBox="0 0 16 16" fill="none" xmlns="http://www.w3.org/2000/svg">
<mask id="mask0_4832_45688" style="mask-type:luminance" maskUnits="userSpaceOnUse" x="0" y="0" width="16" height="16">
<path d="M0 9.53674e-07H16V16H0V9.53674e-07Z" fill="white"/>
</mask>
<g mask="url(#mask0_4832_45688)">
<path d="M7.99897 4.48546C9.93953 4.48546 11.5136 6.06027 11.5136 8.00005C11.5136 9.93984 9.93953 11.5146 7.99897 11.5146C6.05841 11.5146 4.48438 9.93984 4.48438 8.00005C4.48438 6.06027 6.05841 4.48546 7.99897 4.48546Z" stroke="#1C1C1C" stroke-width="1.3" stroke-miterlimit="10" stroke-linecap="round" stroke-linejoin="round"/>
<path d="M8 1.47291C11.6024 1.47291 14.5271 4.39753 14.5271 8" stroke="#1C1C1C" stroke-width="1.3" stroke-miterlimit="10" stroke-linecap="round" stroke-linejoin="round"/>
<path d="M8.50234 6.49336H7.73666C7.32747 6.49336 6.99609 6.82548 6.99609 7.23495V7.23545C6.99609 7.65742 7.33753 7.99961 7.75928 7.99961H8.25131C8.66806 7.99961 9.00444 8.33677 9.00444 8.75273C9.00444 9.1687 8.66806 9.50586 8.25131 9.50586H7.49819" stroke="#1C1C1C" stroke-width="1.3" stroke-miterlimit="10" stroke-linecap="round" stroke-linejoin="round"/>
<path d="M8 6.49414V5.99208" stroke="#1C1C1C" stroke-width="1.3" stroke-miterlimit="10" stroke-linecap="round" stroke-linejoin="round"/>
<path d="M8 9.50673V10.0088" stroke="#1C1C1C" stroke-width="1.3" stroke-miterlimit="10" stroke-linecap="round" stroke-linejoin="round"/>
<path d="M8.00028 2.47754L6.99609 1.47338L8.00028 0.469195" stroke="#1C1C1C" stroke-width="1.3" stroke-miterlimit="10" stroke-linecap="round" stroke-linejoin="round"/>
<path d="M7.99972 14.5273C4.39728 14.5273 1.47266 11.6027 1.47266 8.00025" stroke="#1C1C1C" stroke-width="1.3" stroke-miterlimit="10" stroke-linecap="round" stroke-linejoin="round"/>
<path d="M8 13.5229L9.00419 14.5271L8 15.5312" stroke="#1C1C1C" stroke-width="1.3" stroke-miterlimit="10" stroke-linecap="round" stroke-linejoin="round"/>
</g>
</svg>
